<?xml version="1.0" encoding="UTF-8"?>
<svg id="Layer_2" data-name="Layer 2" xmlns="http://www.w3.org/2000/svg" viewBox="0 0 313.55 313.83">
  <defs>
    <style>
      .cls-1 {
        fill: #f2f2f2;
        stroke-width: 0px;
      }
    </style>
  </defs>
  <g id="Layer_1-2" data-name="Layer 1">
    <g>
      <path class="cls-1" d="m.64,136.94c2.56-4.92,5.51-9.52,8.93-13.72,5.14-6.3,10.86-12.41,17.17-18.34,6.3-5.92,12.71-11.64,19.21-17.17,6.5-5.53,12.46-11.01,17.9-16.44,5.43-5.43,9.99-11.3,13.68-17.61,3.68-6.3,5.92-12.66,6.69-19.06.54-5.93-.86-10.85-4.11-14.82C37.5,43.51,7.11,86.47.64,136.94Z"/>
      <path class="cls-1" d="m156.43,0h0c-19.31,0-37.8,3.5-54.89,9.87,5.55,1.96,10.37,4.37,14.4,7.27,12.8,9.31,18.34,21.35,16.59,36.09-1.16,9.51-4.36,17.75-9.6,24.74-5.24,6.99-11.49,12.47-18.77,16.44-7.27,3.98-15.43,7.91-24.45,11.79-9.02,3.88-17.65,7.42-25.9,10.62-8.25,3.2-16.15,7.62-23.72,13.24-7.57,5.63-13.39,12.13-17.46,19.5,8.34-4.46,17.7-7.42,28.09-8.88,10.38-1.45,19.93-1.94,28.67-1.45,8.73.49,17.27.83,25.61,1.02,8.34.2,15.86-.77,22.55-2.91,6.69-2.13,11.89-6.01,15.57-11.64.77,3.3,1.21,7.08,1.31,11.35.1,4.27-.58,8.69-2.04,13.24-1.45,4.56-3.35,8.73-5.68,12.51-2.33,3.78-5.63,6.94-9.9,9.46-4.27,2.52-9.22,3.88-14.84,4.07-7.37.2-16.3-.53-26.78-2.18-10.48-1.65-19.74-3.25-27.79-4.8-8.06-1.55-17.17-2.04-27.36-1.46-7.09.41-13.76,1.71-20.05,3.81,5.56,60.36,45.25,110.81,99.6,131.91,3.66-6.59,5.89-15.1,6.65-25.57,1-14.86,1-29.73,0-44.6-1.67-22.71-8.86-35.83-21.55-39.34,13.03,0,25.68-1.84,37.96-5.51,12.28-3.67,21.42-8.35,27.44-14.03v61.88c-.34,15.87,0,29.73,1,41.59.67,9.52,2.67,17.46,6.01,23.8,2.43,4.62,5.87,8.61,10.25,11.99,2.57-.18,5.11-.41,7.64-.71.25-6.7,1.55-13.14,4.03-19.29,2.75-6.85,6.35-12.99,10.78-18.42,4.42-5.43,9.35-10.69,14.78-15.78,5.42-5.09,10.94-10.02,16.54-14.78,5.59-4.76,10.73-9.48,15.41-14.16,4.67-4.67,8.6-9.73,11.78-15.16,3.17-5.43,5.09-10.9,5.76-16.41.67-7.35-2.05-12.94-8.14-16.79-6.1-3.84-13.07-4.59-20.92-2.26-8.35,2.34-15.66,8.48-21.92,18.42-6.26,9.94-8.56,21.92-6.89,35.95-7.85-4.34-12.86-9.65-15.03-15.91-2.17-6.26-1.76-12.23,1.25-17.92,3.01-5.68,7.85-10.9,14.53-15.66,6.68-4.76,14.28-8.06,22.8-9.9,12.36-2.34,24.09-2.59,35.2-.75,11.11,1.84,19.92,5.1,26.43,9.77,11.02,8.02,15.79,18.38,14.28,31.07-1,8.19-3.76,15.28-8.27,21.3-4.51,6.01-9.9,10.73-16.16,14.16-6.26,3.43-13.28,6.81-21.04,10.15-7.77,3.34-15.2,6.39-22.3,9.14s-13.91,6.56-20.42,11.4c-6.51,4.85-11.53,10.44-15.03,16.79,7.18-3.84,15.24-6.39,24.18-7.64,8.93-1.25,17.16-1.67,24.68-1.25.07,0,.13,0,.2,0,43.34-27.97,72.06-76.66,72.06-132.08h0C313.55,70.35,243.2,0,156.43,0Z"/>
    </g>
  </g>
</svg>